<svg width="473" height="152" viewBox="0 0 473 152" fill="none" xmlns="http://www.w3.org/2000/svg">
<path d="M51.4002 42.8C37.4002 43.9 34.6002 46.5 32.9002 60.6C31.6002 70.4 32.3002 93.4 34.0002 99.1C35.2002 103.4 38.5002 106.7 43.1002 108.1C47.8002 109.6 99.4002 110.4 110.8 109.2C119 108.4 120.5 107.9 123.1 105.4C127.6 101.1 128.4 96.6 128.4 76C128.4 52.3 127 47.6 119.1 44.3C116.5 43.2 109.3 42.8 88.1002 42.5C72.9002 42.3 56.4002 42.5 51.4002 42.8ZM84.0002 68.2C90.6002 71.7 96.0002 74.7 96.0002 75C96.0002 75.3 90.2002 78.6 83.0002 82.3L70.0002 89.2V75.6C70.0002 66.8 70.4002 62 71.0002 62C71.6002 62 77.5002 64.8 84.0002 68.2Z" fill="#D02121"/>
<path d="M155 45.6C155 45.9 158.6 54.7 163 65.1L171 84V96.5V109H177.5H184V96.1V83.2L192 64.5C196.4 54.2 200 45.6 200 45.4C200 45.2 196.9 45 193.2 45H186.4L182.1 57.1C179.2 65.1 177.4 68.7 176.9 67.8C176.4 67.1 174.4 61.7 172.4 55.7L168.8 45H161.9C158.1 45 155 45.3 155 45.6Z" fill="black"/>
<path d="M358 77V109H364C369.9 109 370 108.9 370 106.3C370 103.6 370 103.6 371.5 105.6C375.4 111.3 385.5 111.3 390.6 105.7C393.1 103 394 100.8 395 94.9C397.2 82 394.6 66.2 389.7 62.2C385.3 58.5 376.8 59 372.3 63.2L370 65.3V55.2V45H364H358V77ZM381.6 71.5C383.8 74.9 384.1 91.9 382.1 96.8C379.5 102.9 372.7 101.9 371.3 95.2C369.9 88.7 370.6 74.3 372.4 71.5C374.7 68.1 379.3 68.1 381.6 71.5Z" fill="black"/>
<path d="M289 54V61H286C283.2 61 283 61.2 283 65C283 68.8 283.2 69 286 69H289V84.9C289 101.3 289.9 106.3 293 108C294 108.6 298 109 301.9 109H309V105C309 101.4 308.7 101 306.6 101C301.9 101 301 97.9 301 82.8V69H305C309 69 309 69 309 65.1C309 61.2 308.9 61.1 305.3 60.8L301.5 60.5L301.2 53.7L300.9 47H295H289V54Z" fill="black"/>
<path d="M210.7 60C205.6 61 201.9 63.8 199.5 68.6C197.8 71.9 197.5 74.5 197.5 85.5C197.5 96.7 197.8 99 199.5 101.9C203.1 108 206.2 109.5 214.8 109.5C227.6 109.5 232.1 105.4 234 92C235.2 83.2 233.9 71.3 231.2 66.6C227.9 61 219.4 58.3 210.7 60ZM219.4 69.5C221.6 71.7 222.2 76.5 221.8 87.9C221.5 96.6 221.2 98.2 219.3 100.1C216.2 103.2 212.3 102 210.4 97.3C208.1 91.8 208.8 73 211.4 70.1C213.6 67.6 217.2 67.4 219.4 69.5Z" fill="black"/>
<path d="M415.3 60.1C412.9 60.5 409.9 61.7 408.5 62.7C402.8 66.9 399.9 79.9 401.9 93.4C403.4 104.1 407.9 108.7 417.3 109.7C427.9 110.8 435.5 105.8 436.7 97L437.3 93H431.8C426.5 93 426.2 93.1 425.7 95.9C423.7 105.9 414 102.6 414 91.9V87H426.1H438.3L437.7 79.1C437.4 74.8 436.4 69.6 435.5 67.6C432.5 61.3 424.4 58.3 415.3 60.1ZM424.4 70.2C425.3 71.4 426 73.9 426 75.7V79H420H414V75.7C414 71.2 416.5 68 420 68C421.8 68 423.4 68.8 424.4 70.2Z" fill="black"/>
<path d="M242 81.5C242 104.5 242.6 107 248.1 108.9C254.3 111 260.1 109.9 263.9 105.9L266 103.6V106.3C266 108.9 266.2 109 272 109H278V85V61H272H266V78.5C266 95.8 266 96.1 263.5 98.5C260.7 101.4 257.8 101.7 255.6 99.4C254.3 98.1 254 94.8 254 79.4V61H248H242V81.5Z" fill="black"/>
<path d="M313 80.7C313 97.5 313.3 101 314.8 104C318.1 110.6 328.5 111.8 335 106.4L338 103.8V106.4C338 108.9 338.2 109 344 109H350V85V61H343.5H337V79.5V98L334.5 99.6C331.2 101.7 327.2 100.7 326 97.4C325.4 96 325 87.2 325 77.9V61H319H313V80.7Z" fill="black"/>
</svg>
