<svg width="1280" height="720" viewBox="0 0 1280 720" fill="none" xmlns="http://www.w3.org/2000/svg">
    <g clip-path="url(#clip0_501_2)">
        <path d="M1280 0H0V720H1280V0Z" fill="#888888" fill-opacity="0.1"/>
        <path fill-rule="evenodd" clip-rule="evenodd" d="M515 285.833C515 274.327 524.327 265 535.833 265H744.167C755.673 265 765 274.327 765 285.833V434.444C765 445.951 755.673 455.278 744.167 455.278H535.833C524.327 455.278 515 445.951 515 434.444V285.833ZM598.333 320.556C598.333 335.897 585.897 348.333 570.556 348.333C555.215 348.333 542.778 335.897 542.778 320.556C542.778 305.215 555.215 292.778 570.556 292.778C585.897 292.778 598.333 305.215 598.333 320.556ZM557.361 420.556H722.292C726.894 420.556 730.625 416.824 730.625 412.222V371.924C730.625 369.714 729.747 367.594 728.184 366.031L690.684 328.531C687.43 325.277 682.153 325.277 678.899 328.531L622.976 384.455C619.722 387.709 614.445 387.709 611.191 384.455L592.767 366.031C589.513 362.777 584.237 362.777 580.983 366.031L551.469 395.545C549.906 397.108 549.028 399.228 549.028 401.438V412.222C549.028 416.824 552.759 420.556 557.361 420.556Z" fill="#888888" fill-opacity="0.2"/>
    </g>
    <defs>
        <clipPath id="clip0_501_2">
            <rect width="1280" height="720" fill="white"/>
        </clipPath>
    </defs>
</svg>
