<?xml version="1.0"?>
<svg xmlns="http://www.w3.org/2000/svg" id="Capa_1" enable-background="new 0 0 512 512" height="512px" viewBox="0 0 512 512" width="512px"><g><g><path d="m464.667 26.228h-225.042c-26.1 0-47.334 21.233-47.334 47.333v52.174h-137.248c-30.351 0-55.043 24.692-55.043 55.043v171.766c0 30.351 24.692 55.043 55.043 55.043h12.925v78.184l116.781-78.184h148.943c30.352 0 55.044-24.692 55.044-55.043v-73.046l68.371 45.774v-65.656h7.56c26.099 0 47.333-21.234 47.333-47.334v-138.721c0-26.099-21.234-47.333-47.333-47.333zm-105.866 326.316c0 13.845-11.263 25.109-25.109 25.109h-158.038l-77.751 52.054v-52.054h-42.86c-13.845 0-25.109-11.264-25.109-25.109v-171.766c0-13.845 11.263-25.109 25.109-25.109h278.649c13.846 0 25.109 11.263 25.109 25.109zm123.264-140.261c0 9.594-7.805 17.399-17.399 17.399h-37.494v39.526l-38.437-25.733v-62.696c0-30.351-24.692-55.043-55.044-55.043h-111.465v-52.175c0-9.594 7.805-17.399 17.399-17.399h225.042c9.593 0 17.399 7.805 17.399 17.399v138.722z" data-original="#000000" class="active-path" data-old_color="#000000" fill="#A4A4A4"/><path d="m133.356 290.543c0 33.642 27.37 61.012 61.012 61.012s61.011-27.37 61.011-61.012v-35.112h-122.023zm29.935-5.177h62.154v5.177c0 17.136-13.941 31.077-31.077 31.077s-31.077-13.941-31.077-31.077z" data-original="#000000" class="active-path" data-old_color="#000000" fill="#A4A4A4"/><path d="m170.83 227.188 17.471-24.308-39.32-28.259-39.319 28.259 17.471 24.308 21.848-15.703z" data-original="#000000" class="active-path" data-old_color="#000000" fill="#A4A4A4"/><path d="m200.435 202.88 17.47 24.308 21.849-15.703 21.849 15.703 17.47-24.308-39.319-28.259z" data-original="#000000" class="active-path" data-old_color="#000000" fill="#A4A4A4"/></g></g> </svg>
