<?xml version="1.0"?>
<svg xmlns="http://www.w3.org/2000/svg" xmlns:xlink="http://www.w3.org/1999/xlink" version="1.1" id="Capa_1" x="0px" y="0px" viewBox="0 0 512 512" style="enable-background:new 0 0 512 512;" xml:space="preserve" width="512px" height="512px"><g><g>
	<g>
		<g>
			<path d="M162.133,42.667h42.667c4.71,0,8.533-3.823,8.533-8.533c0-4.71-3.823-8.533-8.533-8.533h-42.667     c-4.71,0-8.533,3.823-8.533,8.533C153.599,38.844,157.422,42.667,162.133,42.667z" data-original="#000000" class="active-path" data-old_color="#000000" fill="#A4A4A4"/>
			<path d="M127.999,42.667h8.533c4.71,0,8.533-3.823,8.533-8.533c0-4.71-3.823-8.533-8.533-8.533h-8.533     c-4.71,0-8.533,3.823-8.533,8.533C119.466,38.844,123.289,42.667,127.999,42.667z" data-original="#000000" class="active-path" data-old_color="#000000" fill="#A4A4A4"/>
			<path d="M473.686,128H315.732V59.733c0-0.029-0.004-0.056-0.004-0.085V33.801C315.728,15.164,300.573,0,281.928,0H59.404     C40.759,0,25.595,15.164,25.595,33.801v43c-4.708,0.002-8.529,3.824-8.529,8.533v8.533c0,4.709,3.821,8.531,8.529,8.533v8.534     c-4.708,0.002-8.529,3.824-8.529,8.533V128c0,4.709,3.821,8.531,8.529,8.533v8.534c-4.708,0.002-8.529,3.824-8.529,8.533v8.533     c0,4.709,3.821,8.531,8.529,8.533V478.2c0,18.637,15.164,33.8,33.809,33.8h222.524c18.645,0,33.801-15.164,33.801-33.8v-42.915     c0-0.029,0.004-0.056,0.004-0.085v-68.267h157.954c11.716,0,21.248-9.532,21.248-21.248V149.248     C494.934,137.532,485.402,128,473.686,128z M477.868,149.248V281.6h-256V149.248c0-0.711,0.195-1.372,0.509-1.96     c0.619-1.152,1.751-1.976,3.096-2.164c0.19-0.026,0.379-0.058,0.576-0.058h81.15h166.487     C475.99,145.067,477.868,146.944,477.868,149.248z M298.662,426.667H42.666v-358.4h255.996V128h-72.613h-0.002     c-11.716,0-21.248,9.532-21.248,21.248v196.437c0,11.716,9.532,21.248,21.248,21.248h0.002h72.613V426.667z M170.666,486.4     c-9.412,0-17.067-7.654-17.067-17.067c0-9.412,7.654-17.067,17.067-17.067c9.412,0,17.067,7.654,17.067,17.067     C187.732,478.746,180.078,486.4,170.666,486.4z M59.404,17.067h222.524c9.233,0,16.734,7.509,16.734,16.734V51.2h-256V33.801     C42.662,24.576,50.171,17.067,59.404,17.067z M42.662,478.2v-34.466h105.461c-7.099,6.259-11.59,15.411-11.59,25.6     c0,10.189,4.49,19.341,11.59,25.6H59.404C50.171,494.933,42.662,487.424,42.662,478.2z M281.928,494.933h-88.718     c7.099-6.259,11.59-15.411,11.59-25.6c0-10.189-4.49-19.341-11.59-25.6h105.452V478.2     C298.662,487.424,291.161,494.933,281.928,494.933z M473.686,349.867H307.199h-81.15c-0.197,0-0.386-0.032-0.576-0.058     c-1.345-0.188-2.477-1.011-3.096-2.164c-0.315-0.587-0.509-1.248-0.509-1.96v-47.019h256v47.019     C477.868,347.989,475.99,349.867,473.686,349.867z" data-original="#000000" class="active-path" data-old_color="#000000" fill="#A4A4A4"/>
			<path d="M328.771,254.991c1.263,0.674,2.645,1.007,4.028,1.007c1.655,0,3.302-0.478,4.736-1.434l51.2-34.133     c2.372-1.579,3.797-4.241,3.797-7.1c0-2.85-1.425-5.513-3.797-7.1l-51.2-34.133c-2.628-1.749-5.999-1.911-8.764-0.418     c-2.773,1.485-4.506,4.378-4.506,7.518v68.267C324.266,250.613,325.998,253.506,328.771,254.991z M341.333,195.146l27.281,18.185     l-27.281,18.193V195.146z" data-original="#000000" class="active-path" data-old_color="#000000" fill="#A4A4A4"/>
			<path d="M281.599,315.733h-34.133c-4.71,0-8.533,3.823-8.533,8.533s3.823,8.533,8.533,8.533h34.133     c4.71,0,8.533-3.823,8.533-8.533S286.31,315.733,281.599,315.733z" data-original="#000000" class="active-path" data-old_color="#000000" fill="#A4A4A4"/>
			<path d="M264.532,162.133h-17.067c-4.71,0-8.533,3.823-8.533,8.533s3.823,8.533,8.533,8.533h17.067     c4.71,0,8.533-3.823,8.533-8.533S269.243,162.133,264.532,162.133z" data-original="#000000" class="active-path" data-old_color="#000000" fill="#A4A4A4"/>
			<path d="M435.199,179.2h17.067c4.71,0,8.533-3.823,8.533-8.533s-3.823-8.533-8.533-8.533h-17.067     c-4.71,0-8.533,3.823-8.533,8.533S430.489,179.2,435.199,179.2z" data-original="#000000" class="active-path" data-old_color="#000000" fill="#A4A4A4"/>
			<path d="M264.532,247.467h-17.067c-4.71,0-8.533,3.823-8.533,8.533s3.823,8.533,8.533,8.533h17.067     c4.71,0,8.533-3.823,8.533-8.533S269.243,247.467,264.532,247.467z" data-original="#000000" class="active-path" data-old_color="#000000" fill="#A4A4A4"/>
			<path d="M435.199,264.533h17.067c4.71,0,8.533-3.823,8.533-8.533s-3.823-8.533-8.533-8.533h-17.067     c-4.71,0-8.533,3.823-8.533,8.533S430.489,264.533,435.199,264.533z" data-original="#000000" class="active-path" data-old_color="#000000" fill="#A4A4A4"/>
			<path d="M452.266,315.733h-128c-4.71,0-8.533,3.823-8.533,8.533s3.823,8.533,8.533,8.533h128c4.71,0,8.533-3.823,8.533-8.533     S456.976,315.733,452.266,315.733z" data-original="#000000" class="active-path" data-old_color="#000000" fill="#A4A4A4"/>
		</g>
	</g>
</g></g> </svg>
