<?xml version="1.0"?>
<svg xmlns="http://www.w3.org/2000/svg" xmlns:xlink="http://www.w3.org/1999/xlink" version="1.1" id="Capa_1" x="0px" y="0px" viewBox="0 0 512 512" style="enable-background:new 0 0 512 512;" xml:space="preserve" width="512px" height="512px"><g><g>
	<g>
		<path d="M480.898,496.333c-1.104-24.819-11.075-49.292-27.355-67.142c-5.531-6.065-12.04-11.379-19.302-15.877l-11.609-112.315    h28.37v-45c0-7.836,0-67.566,0-75h-0.586C444.207,100.544,389.2,32.824,314.301,9.051c-27.054-8.587-55.279-11.08-83.891-7.409    C140.053,13.234,71.495,89.972,62.104,180.999H61c0,3.628,0,116.984,0,120.001h28.637l-9.668,110.994    c-8.154,4.765-15.416,10.529-21.5,17.199c-16.279,17.849-26.253,42.319-27.363,67.137L30.404,512h451.191L480.898,496.333z     M245.637,360.504C192.569,355.443,151,307.273,151,250.841v-39.842h7.918c38.115,0,73.817-17.567,97.083-47.133    c23.262,29.561,58.96,47.133,97.083,47.133h7.918v45c0,15.335-3.391,30.344-9.706,44.017c-3.593,1.362,1.259,0.983-80.294,0.983    v29.8h58.471C307.126,352.712,277.104,363.505,245.637,360.504z M317.698,418.668C303.871,438.677,280.981,451,256.002,451    c-24.979,0-47.869-12.323-61.696-32.333l13.71-1.779l8.169-31.953c12.799,4.062,25.995,6.075,40.016,6.075    c13.635,0,26.958-2.006,39.658-5.912l8.129,31.79L317.698,418.668z M188.434,372.359l-4.448,17.396l-60.905,7.903    c-4.067,0.528-8.044,1.265-11.938,2.16l8.607-98.819h10.252C140.784,330.071,161.09,355.866,188.434,372.359z M152.056,180.999    c7.24-51.37,51.09-91.001,103.945-91.001c52.854,0,96.705,39.63,103.945,91.001h-6.862c-35.659,0-67.718-19.813-83.666-51.708    l-13.416-26.833l-13.417,26.833c-15.947,31.895-48.006,51.708-83.667,51.708H152.056z M374.312,320.943    c6.377-5.176,11.312-12.057,14.109-19.945h4.051l10.258,99.253c-4.472-1.102-9.069-1.974-13.777-2.585l-60.938-7.911    l-4.315-16.876C344.25,360.891,362.06,343.285,374.312,320.943z M391.002,270.999c0-6.569,0-52.366,0-60h30c0,6.893,0,53.533,0,60    H391.002z M234.228,31.398c96.764-12.415,177.855,59.55,186.077,149.601h-30.128c-7.436-67.958-64.768-121.001-134.176-121.001    c-69.407,0-126.74,53.042-134.176,121.001H92.249C101.331,103.611,159.327,41.007,234.228,31.398z M91,210.999h30    c0,53.995,0,1.564,0,60H91C91,264.43,91,218.633,91,210.999z M63.393,482c3.085-12.216,9.046-23.607,17.241-32.592    c10.667-11.696,27.113-19.509,46.307-22l35.087-4.553C179.729,458.371,215.947,481,256.001,481    c40.052,0,76.269-22.628,93.971-58.143l35.119,4.559c19.186,2.49,35.624,10.301,46.286,21.991    c8.195,8.986,14.154,20.376,17.237,32.593H63.393z" data-original="#000000" class="active-path" data-old_color="#000000" fill="#A4A4A4"/>
	</g>
</g></g> </svg>
