<?xml version="1.0"?>
<svg xmlns="http://www.w3.org/2000/svg" xmlns:xlink="http://www.w3.org/1999/xlink" version="1.1" id="Capa_1" x="0px" y="0px" viewBox="0 0 480 480" style="enable-background:new 0 0 480 480;" xml:space="preserve" width="512px" height="512px"><g><g>
	<g>
		<g>
			<path d="M476.488,233.376c-2.199-1.487-4.992-1.787-7.456-0.8l-80,32c-3.037,1.213-5.03,4.153-5.032,7.424h-16v-48     c0-13.255-10.745-24-24-24h-48H144H72c-13.255,0-24,10.745-24,24v4.896l-37.472-12.488c-4.192-1.396-8.722,0.87-10.118,5.062     C0.138,222.286,0,223.14,0,224v96c0,4.418,3.582,8,8,8c0.859-0.001,1.712-0.138,2.528-0.408L48,315.104V416     c0,13.255,10.745,24,24,24h272c13.255,0,24-10.745,24-24v-48h16c-0.001,3.273,1.992,6.218,5.032,7.432l80,32     c2.464,0.987,5.257,0.687,7.456-0.8c2.199-1.49,3.515-3.975,3.512-6.632V240C480,237.346,478.685,234.865,476.488,233.376z      M48,298.232l-32,10.672v-73.808l32,10.672V298.232z M352,416c0,4.418-3.582,8-8,8H72c-4.418,0-8-3.582-8-8V224     c0-4.418,3.582-8,8-8h272c4.418,0,8,3.582,8,8V416z M384,352h-16v-64h16V352z M464,388.184l-64-25.6v-85.168l64-25.6V388.184z" data-original="#000000" class="active-path" data-old_color="#000000" fill="#A4A4A4"/>
			<path d="M224,120c0-44.183-35.817-80-80-80s-80,35.817-80,80s35.817,80,80,80C188.163,199.951,223.952,164.163,224,120z M144,184     c-35.346,0-64-28.654-64-64c0-35.346,28.654-64,64-64c35.346,0,64,28.654,64,64C207.96,155.33,179.33,183.96,144,184z" data-original="#000000" class="active-path" data-old_color="#000000" fill="#A4A4A4"/>
			<path d="M352,144c0-30.928-25.072-56-56-56c-30.928,0-56,25.072-56,56c0,30.928,25.072,56,56,56     C326.913,199.965,351.965,174.913,352,144z M296,184c-22.091,0-40-17.909-40-40s17.909-40,40-40c22.091,0,40,17.909,40,40     C335.974,166.08,318.08,183.974,296,184z" data-original="#000000" class="active-path" data-old_color="#000000" fill="#A4A4A4"/>
			<path d="M288,248H128c-4.418,0-8,3.582-8,8v128c0,4.418,3.582,8,8,8h160c4.418,0,8-3.582,8-8V256     C296,251.582,292.418,248,288,248z M280,376H136V264h144V376z" data-original="#000000" class="active-path" data-old_color="#000000" fill="#A4A4A4"/>
		</g>
	</g>
</g></g> </svg>
